<?xml version="1.0" encoding="utf-8"?>
<!-- Generator: Adobe Illustrator 17.1.0, SVG Export Plug-In . SVG Version: 6.00 Build 0)  -->
<!DOCTYPE svg PUBLIC "-//W3C//DTD SVG 1.1//EN" "http://www.w3.org/Graphics/SVG/1.1/DTD/svg11.dtd">
<svg version="1.1" id="Layer_1" xmlns="http://www.w3.org/2000/svg" xmlns:xlink="http://www.w3.org/1999/xlink" x="0px" y="0px"
	 viewBox="0 0 792 612" enable-background="new 0 0 792 612" xml:space="preserve">
<path d="M353.9,116.2c0-20.4,15.3-38.2,35.7-38.2l0,0c20.4,0,35.7,17.8,35.7,38.2v372.3c0,20.4-15.3,35.7-35.7,35.7l0,0
	c-20.4,0-35.7-15.3-35.7-35.7V116.2z"/>
<path d="M204.8,336.6c-20.4,0-35.7-15.3-35.7-35.7l0,0c0-20.4,15.3-35.7,35.7-35.7H577c20.4,0,35.7,15.3,35.7,35.7l0,0
	c0,20.4-15.3,35.7-35.7,35.7H204.8z"/>
</svg>
