<?xml version="1.0" encoding="utf-8"?>
<!-- Generator: Adobe Illustrator 17.1.0, SVG Export Plug-In . SVG Version: 6.00 Build 0)  -->
<!DOCTYPE svg PUBLIC "-//W3C//DTD SVG 1.1//EN" "http://www.w3.org/Graphics/SVG/1.1/DTD/svg11.dtd">
<svg version="1.1" id="Layer_2" xmlns="http://www.w3.org/2000/svg" xmlns:xlink="http://www.w3.org/1999/xlink" x="0px" y="0px"
	 viewBox="0 0 792 612" enable-background="new 0 0 792 612" xml:space="preserve">
<rect x="212.4" y="71.4" width="374.9" height="35.7"/>
<rect x="212.4" y="522.8" width="374.9" height="35.7"/>
<rect x="230.3" y="107.1" width="341.7" height="28"/>
<rect x="230.3" y="495.7" width="341.7" height="28.1"/>
<path fill="none" stroke="#000000" stroke-width="25" stroke-miterlimit="10" d="M258.3,135.2c0,0,0,43.3,30.6,107.1
	c17.9,33.1,43.4,76.5,43.4,76.5s-74,109.6-74,135.1s0,53.5,0,53.5"/>
<path fill="none" stroke="#000000" stroke-width="26" stroke-miterlimit="10" d="M536.2,135.2c0,0,0,43.3-30.6,107.1
	c-17.9,33.1-43.4,76.5-43.4,76.5s74,109.6,74,135.1s0,53.5,0,53.5"/>
<polygon points="355.2,232.1 439.4,232.1 398.6,303.4 "/>
<polygon points="273.6,507.4 396,303.4 518.4,510 "/>
<line fill="none" stroke="#000000" stroke-width="25" stroke-miterlimit="10" x1="398.6" y1="262.6" x2="398.6" y2="395.2"/>
</svg>
